<?xml version="1.0" encoding="UTF-8"?>
<!-- Generated by Pixelmator Pro 3.7 -->
<svg width="128" height="128" viewBox="0 0 128 128" xmlns="http://www.w3.org/2000/svg">
    <g id="Canvas">
        <linearGradient id="linearGradient1" x1="51.275039" y1="122.755768" x2="76.872604" y2="110.429506" gradientUnits="userSpaceOnUse">
            <stop offset="0" stop-color="#fc0000" stop-opacity="1"/>
            <stop offset="1" stop-color="#ba1214" stop-opacity="1"/>
        </linearGradient>
        <path id="Path-copy-7" fill="url(#linearGradient1)" fill-rule="evenodd" stroke="none" d="M 64.484451 107.233093 C 77.587807 107.241173 83.005447 123.549118 80.475555 124.109863 C 66.476852 127.212593 55.097321 126.041534 47.607697 123.224205 C 44.826603 122.178055 53.160431 107.226135 64.484451 107.233093 Z"/>
        <linearGradient id="linearGradient2" x1="95.144793" y1="30.640506" x2="116.037972" y2="12.337859" gradientUnits="userSpaceOnUse">
            <stop offset="0" stop-color="#fc0000" stop-opacity="1"/>
            <stop offset="1" stop-color="#ba1214" stop-opacity="1"/>
        </linearGradient>
        <path id="Path" fill="url(#linearGradient2)" fill-rule="evenodd" stroke="none" d="M 96.166588 30.921257 C 86.90683 21.65007 94.607445 6.287766 96.792854 7.680161 C 108.885391 15.384773 116.103874 24.259384 119.407684 31.547501 C 120.634476 34.253769 104.168968 38.933464 96.166588 30.921257 Z"/>
        <linearGradient id="linearGradient3" x1="11.628652" y1="112.343247" x2="33.371565" y2="94.813347" gradientUnits="userSpaceOnUse">
            <stop offset="0" stop-color="#fc0000" stop-opacity="1"/>
            <stop offset="1" stop-color="#ba1214" stop-opacity="1"/>
        </linearGradient>
        <path id="Path-copy" fill="url(#linearGradient3)" fill-rule="evenodd" stroke="none" d="M 31.346579 93.633293 C 41.449627 101.977539 35.25172 118.005203 32.943291 116.827934 C 20.170069 110.313698 12.136848 102.16922 8.151948 95.230026 C 6.672248 92.65332 22.615431 86.42215 31.346579 93.633293 Z"/>
        <linearGradient id="linearGradient4" x1="4.029223" y1="73.778604" x2="18.117536" y2="51.383337" gradientUnits="userSpaceOnUse">
            <stop offset="0" stop-color="#fc0000" stop-opacity="1"/>
            <stop offset="1" stop-color="#ba1214" stop-opacity="1"/>
        </linearGradient>
        <path id="Path-copy-2" fill="url(#linearGradient4)" fill-rule="evenodd" stroke="none" d="M 20.433481 63.021011 C 20.399565 76.124329 4.08097 81.509796 3.525209 78.978806 C 0.45009 64.974014 1.643583 53.596817 4.475678 46.112762 C 5.527307 43.333733 20.462763 51.697029 20.433481 63.021011 Z"/>
        <linearGradient id="linearGradient5" x1="12.564443" y1="32.245" x2="33.38891" y2="13.882514" gradientUnits="userSpaceOnUse">
            <stop offset="0" stop-color="#fc0000" stop-opacity="1"/>
            <stop offset="1" stop-color="#ba1214" stop-opacity="1"/>
        </linearGradient>
        <path id="Path-copy-3" fill="url(#linearGradient5)" fill-rule="evenodd" stroke="none" d="M 32.474098 32.435135 C 23.298958 41.79007 7.858006 34.248398 9.227774 32.048729 C 16.807198 19.877335 25.606846 12.567657 32.860485 9.18882 C 35.553947 7.934166 40.403305 24.35051 32.474098 32.435135 Z"/>
        <linearGradient id="linearGradient6" x1="51.260727" y1="15.75669" x2="76.859317" y2="3.430275" gradientUnits="userSpaceOnUse">
            <stop offset="0" stop-color="#fc0000" stop-opacity="1"/>
            <stop offset="1" stop-color="#ba1214" stop-opacity="1"/>
        </linearGradient>
        <path id="Path-copy-4" fill="url(#linearGradient6)" fill-rule="evenodd" stroke="none" d="M 63.68684 18.953354 C 50.5835 18.976067 45.127552 2.680901 47.656116 2.114204 C 61.647488 -1.021408 73.029739 0.122894 80.525963 2.922623 C 83.309509 3.962227 75.010841 18.933693 63.68684 18.953354 Z"/>
        <linearGradient id="linearGradient7" x1="94.669848" y1="112.189164" x2="115.694682" y2="94.002208" gradientUnits="userSpaceOnUse">
            <stop offset="0" stop-color="#fc0000" stop-opacity="1"/>
            <stop offset="1" stop-color="#ba1214" stop-opacity="1"/>
        </linearGradient>
        <path id="Path-copy-5" fill="url(#linearGradient7)" fill-rule="evenodd" stroke="none" d="M 95.826569 93.611877 C 105.204361 84.460098 120.476463 92.338097 119.058853 94.50724 C 111.214714 106.509743 102.257111 113.624969 94.931221 116.844154 C 92.210922 118.03952 87.722221 101.52092 95.826569 93.611877 Z"/>
        <linearGradient id="linearGradient8" x1="110.030059" y1="74.790592" x2="124.118328" y2="52.394498" gradientUnits="userSpaceOnUse">
            <stop offset="0" stop-color="#fc0000" stop-opacity="1"/>
            <stop offset="1" stop-color="#ba1214" stop-opacity="1"/>
        </linearGradient>
        <path id="Path-copy-6" fill="url(#linearGradient8)" fill-rule="evenodd" stroke="none" d="M 107.714989 63.182945 C 107.723068 50.07959 124.031013 44.661957 124.591759 47.191849 C 127.694489 61.190544 126.52343 72.570084 123.706093 80.059708 C 122.65995 82.840797 107.708031 74.506973 107.714989 63.182945 Z"/>
    </g>
    <g id="Smiley">
        <linearGradient id="linearGradient9" x1="55.880552" y1="81.87159" x2="82.124712" y2="69.809278" gradientUnits="userSpaceOnUse">
            <stop offset="0" stop-color="#fc0000" stop-opacity="1"/>
            <stop offset="1" stop-color="#ba1214" stop-opacity="1"/>
        </linearGradient>
        <path id="path1" fill="url(#linearGradient9)" fill-rule="evenodd" stroke="none" d="M 69.630867 84.99794 C 83.067734 84.820061 88.401863 68.796829 85.799942 68.28112 C 71.402702 65.427544 59.749332 66.720734 52.107269 69.573898 C 49.269573 70.633347 58.018623 85.151657 69.630867 84.99794 Z"/>
        <linearGradient id="linearGradient10" x1="40.169001" y1="52.312135" x2="53.379701" y2="45.947241" gradientUnits="userSpaceOnUse">
            <stop offset="0" stop-color="#fc0000" stop-opacity="1"/>
            <stop offset="1" stop-color="#ba1214" stop-opacity="1"/>
        </linearGradient>
        <path id="path2" fill="url(#linearGradient10)" fill-rule="evenodd" stroke="none" d="M 47.08773 44.29731 C 53.851635 44.388733 56.539635 52.842979 55.229969 53.115593 C 47.98317 54.624008 42.116844 53.943733 38.269455 52.439552 C 36.84082 51.881012 41.24231 44.218315 47.08773 44.29731 Z"/>
        <linearGradient id="linearGradient11" x1="74.089962" y1="52.307487" x2="87.300497" y2="45.942555" gradientUnits="userSpaceOnUse">
            <stop offset="0" stop-color="#fc0000" stop-opacity="1"/>
            <stop offset="1" stop-color="#ba1214" stop-opacity="1"/>
        </linearGradient>
        <path id="path3" fill="url(#linearGradient11)" fill-rule="evenodd" stroke="none" d="M 80.380539 44.292648 C 73.616661 44.385956 70.93103 52.840965 72.240776 53.113205 C 79.487991 54.619591 85.354126 53.937675 89.201096 52.432411 C 90.629578 51.873466 86.225937 44.212006 80.380539 44.292648 Z"/>
    </g>
</svg>
